<svg width="100" height="100" viewBox="0 0 100 100" fill="none" xmlns="http://www.w3.org/2000/svg">
<circle cx="50" cy="50" r="48.5" fill="#FEDD5F" stroke="#57224A" stroke-width="3"/>
<path d="M27 64.3891V37.12C27 35.4478 27.4684 33.7669 28.6038 32.5392C31.2847 29.6404 33.2676 30.2247 36.5 34.5484V26.4925C36.5 25.2288 36.8702 23.9726 37.7004 23.0199C40.3811 19.9438 42.2877 20.358 45.5 24.5484V23.3936C45.5 20.622 46.4598 17.6406 48.9556 16.4352C50.7965 15.5461 52.296 15.9734 53.9597 18.1421C55.1004 19.629 55.5 21.5321 55.5 23.4062V24.5484C58.2693 19.8671 60.69 19.2381 63.2316 22.5757C64.1628 23.7985 64.5 25.3554 64.5 26.8924V44.0484C68.0478 39.9176 70.0557 39.5615 72.5714 42.2762C73.5772 43.3614 74 44.8455 74 46.3251V64.2335C74 65.7664 73.7566 67.2992 73.2247 68.7369C68.4652 81.6007 63.0786 85.5888 50.9365 86.4611C49.9846 86.5294 49.0226 86.4622 48.0882 86.2679C36.4658 83.8506 31.3764 79.9461 27.6426 68.6151C27.1943 67.2548 27 65.8213 27 64.3891Z" fill="white"/>
<path d="M64.5 44.0484C68.0478 39.9176 70.0557 39.5615 72.5714 42.2762C73.5772 43.3614 74 44.8455 74 46.3251V64.2335C74 65.7664 73.7566 67.2992 73.2247 68.7369C68.4652 81.6007 63.0786 85.5888 50.9365 86.461C49.9846 86.5294 49.0226 86.4622 48.0882 86.2679C36.4658 83.8506 31.3764 79.9461 27.6426 68.615C27.1943 67.2548 27 65.8213 27 64.3891V37.12C27 35.4478 27.4684 33.7669 28.6038 32.5392C31.2847 29.6404 33.2676 30.2247 36.5 34.5484V51.5484V26.4925C36.5 25.2288 36.8702 23.9726 37.7004 23.0199C40.3811 19.9438 42.2877 20.358 45.5 24.5484M64.5 44.0484V59.5484L49.5 66.5484M64.5 44.0484V26.8924C64.5 25.3554 64.1628 23.7985 63.2316 22.5757C60.69 19.2381 58.2693 19.8671 55.5 24.5484M55.5 24.5484V49.5484M55.5 24.5484V23.4062C55.5 21.5321 55.1004 19.629 53.9597 18.1421C52.296 15.9734 50.7965 15.5461 48.9556 16.4352C46.4598 17.6406 45.5 20.622 45.5 23.3936V24.5484M45.5 49.5484V24.5484" stroke="#5F2247" stroke-width="2"/>
</svg>
