<svg width="100" height="100" viewBox="0 0 100 100" fill="none" xmlns="http://www.w3.org/2000/svg">
<circle cx="50" cy="50" r="48.5" fill="#EF5682" stroke="#57224A" stroke-width="3"/>
<path d="M26 55.0327V44.4131V31.2894C26 29.7484 26.4625 28.2021 27.5475 27.1079C30.4516 24.179 32.5583 25.0045 36 28.9132V28.827C36 26.962 36.6732 25.0727 38.2115 24.0182C40.8731 22.1938 42.8942 22.8185 46 25.9132C48.9444 22.9849 50.862 22.2851 53.3826 24.041C54.8713 25.0781 55.5 26.9272 55.5 28.7416V28.9132C58.8853 25.5262 61.0427 24.7211 63.9996 27.0287C65.3923 28.1155 66 29.8949 66 31.6615V38.4132H69.3556C70.1035 38.4132 70.8473 38.6091 71.4512 39.0503C73.0969 40.2529 73.6857 41.3577 74 43.4131V57.4132C69.991 70.9885 64.3197 75.2121 50.8084 77.0709C48.9562 77.3257 47.064 77.1769 45.276 76.6304C35.4221 73.6189 31.2882 70.0835 27.1117 60.5761C26.3464 58.8339 26 56.9356 26 55.0327Z" fill="white"/>
<path d="M26 44.4131V55.0327C26 56.9356 26.3464 58.8339 27.1117 60.5761C31.2882 70.0836 35.4221 73.6189 45.276 76.6304C47.064 77.1769 48.9562 77.3257 50.8084 77.0709C64.3197 75.2121 69.991 70.9885 74 57.4132V43.4131C73.6857 41.3577 73.0969 40.2529 71.4512 39.0503C70.8473 38.6091 70.1035 38.4132 69.3556 38.4132H66M26 44.4131V31.2894C26 29.7484 26.4625 28.2021 27.5475 27.1079C30.4516 24.179 32.5583 25.0045 36 28.9132M26 44.4131C29.7832 48.37 31.9745 48.3096 36 44.4131V28.9132M49 58.4131C52.811 52.4628 56.4202 51.1136 64 50.9131V46.9131H58.5243C57.5425 46.9131 56.5775 46.569 55.8985 45.86C55.5856 45.5332 55.3156 45.2189 55.0894 44.9131M36 28.9132V28.827C36 26.962 36.6732 25.0727 38.2115 24.0182C40.8731 22.1938 42.8942 22.8185 46 25.9132M36 44.9131C40.0313 48.8101 42.2117 48.5259 46 44.9131M46 44.9131V25.9132M46 44.9131C49.6646 48.2369 51.6687 48.6384 55.0894 44.9131M46 25.9132C48.9444 22.9849 50.862 22.2851 53.3826 24.041C54.8713 25.0781 55.5 26.9272 55.5 28.7416V28.9132M55.5 39.4131V28.9132M55.0894 44.9131C53.742 43.092 53.9485 41.5715 55.8949 39.4913C56.5732 38.7663 57.5499 38.4132 58.5428 38.4132H66M55.5 28.9132C58.8853 25.5262 61.0427 24.7211 63.9996 27.0287C65.3923 28.1155 66 29.8949 66 31.6615V38.4132" stroke="#671C4D" stroke-width="2"/>
</svg>
