<svg width="100" height="100" viewBox="0 0 100 100" fill="none" xmlns="http://www.w3.org/2000/svg">
<circle cx="50" cy="50" r="48.5" fill="#82CFD9" stroke="#57224A" stroke-width="3"/>
<path d="M37.5 82.0234C29.8062 76.3367 29.1336 72.5518 27 66.0234V52.7734V41.1991C27 40.1271 27.4132 39.0784 28.2365 38.3917C31.0695 36.0286 32.9646 36.2882 36 39.5234V38.878C36 37.6814 36.4101 36.5019 37.2582 35.6579C40.3693 32.5621 42.4863 32.8527 46 37.0234V19.678C46 18.6185 46.4072 17.5833 47.2079 16.8894C50.1175 14.3676 52.1066 14.3676 54.8765 16.9051C55.6265 17.5922 56 18.5896 56 19.6067V44.0234L61.5804 22.632C61.849 21.6023 62.511 20.7057 63.4558 20.216C66.9031 18.4292 68.8594 18.5266 70.5645 22.4297C70.8715 23.1324 70.9107 23.9212 70.7427 24.6694L65.5 48.0234H69.5C72.1117 49.5995 72.8794 50.5823 73 52.5234V66.0234C70.5753 75.1163 68.0825 78.4912 62 82.0234C51.4641 87.2306 46.1972 86.7066 37.5 82.0234Z" fill="white"/>
<path d="M48.5 68.0234C52.983 62.0221 56.0699 59.9387 63.5 60.5234V55.5234H56.6512C56.2199 55.5234 55.7856 55.465 55.3916 55.2895C53.8272 54.5927 53.5323 53.5646 53.5 51.5234C54.1329 49.0946 54.9056 48.2104 57.5 48.0234H65.5M36 39.5234C32.9646 36.2882 31.0695 36.0286 28.2365 38.3917C27.4132 39.0784 27 40.1271 27 41.1991V52.7734M36 39.5234V52.5234M36 39.5234V38.878C36 37.6814 36.4101 36.5019 37.2582 35.6579C40.3693 32.5621 42.4863 32.8527 46 37.0234M36 52.5234C32.7239 56.0087 30.8372 57.0013 27 52.7734M36 52.5234C39.9059 56.5501 42.0899 57.1148 45.1551 53.5722C45.7257 52.9128 46 52.0515 46 51.1794V37.0234M27 52.7734V66.0234C29.1336 72.5518 29.8062 76.3367 37.5 82.0234C46.1972 86.7066 51.4641 87.2306 62 82.0234C68.0824 78.4912 70.5753 75.1163 73 66.0234V52.5234C72.8794 50.5823 72.1117 49.5995 69.5 48.0234H65.5M46 37.0234V19.678C46 18.6185 46.4072 17.5833 47.2079 16.8894C50.1175 14.3676 52.1066 14.3676 54.8765 16.9051C55.6265 17.5922 56 18.5896 56 19.6067V44.0234L61.5804 22.632C61.849 21.6023 62.511 20.7057 63.4558 20.216C66.9031 18.4292 68.8594 18.5266 70.5645 22.4297C70.8715 23.1324 70.9107 23.9212 70.7427 24.6694L65.5 48.0234" stroke="#671C4D" stroke-width="2"/>
</svg>
